<svg id="Capa_1" data-name="Capa 1" xmlns="http://www.w3.org/2000/svg" xmlns:xlink="http://www.w3.org/1999/xlink" viewBox="0 0 202 202"><defs><style>.cls-1{mask:url(#mask);}.cls-2{fill:#be1622;stroke:#1d1d1b;stroke-miterlimit:10;stroke-width:2px;}</style><mask id="mask" x="-0.66" y="0" width="202.66" height="202" maskUnits="userSpaceOnUse"><g transform="translate(-50.73 -35.49)"><image width="1009" height="1009" transform="translate(50.06 36.28) scale(0.2 0.2)" xlink:href="../../../../../../../Downloads/Grunge-Textures/Grunge%20Textures/Texture6.png"/></g></mask></defs><title>mirilla</title><g class="cls-1"><path class="cls-2" d="M251.73,134.49h-25c-1.06-39.38-33.13-71.09-73-72.12V36.49h-4V62.37c-39.82,1-71.89,32.74-72.95,72.12H51.73v4H76.78c1.06,39.38,33.13,71.09,72.95,72.12v25.88h4V210.61c39.82-1,71.89-32.74,73-72.12h25Zm-35,0h-15a50,50,0,0,0-48-47.95v-15A65,65,0,0,1,216.68,134.49Zm-67-12.8a15,15,0,0,0-12.49,12.8h-28.8a43.59,43.59,0,0,1,41.29-41.77Zm-12.49,16.8a15,15,0,0,0,12.49,12.79v29a43.57,43.57,0,0,1-41.29-41.76Zm16.49,12.91a15,15,0,0,0,13.21-12.91H195a43.55,43.55,0,0,1-41.28,41.76Zm13.21-16.91a15,15,0,0,0-13.21-12.91V92.72A43.57,43.57,0,0,1,195,134.49ZM149.73,71.54v15a50,50,0,0,0-47.95,48h-15A65,65,0,0,1,149.73,71.54Zm-62.95,67h15a50,50,0,0,0,47.95,47.95v15A65,65,0,0,1,86.78,138.49Zm66.95,62.95v-15a50,50,0,0,0,48-47.95h15A65,65,0,0,1,153.73,201.44Z" transform="translate(-50.73 -35.49)"/></g></svg>